<svg width="330" height="155" viewBox="0 0 330 155" fill="none" xmlns="http://www.w3.org/2000/svg">
<g clip-path="url(#clip0_68_10042)">
<path d="M318.012 -159.145L250.98 -174.614C243.697 -176.289 236.221 -172.487 233.256 -165.655L202.318 -93.4671C199.611 -87.1507 201.416 -79.7386 206.766 -75.4203L245.824 -43.4515C222.621 5.98404 182.08 47.1051 131.613 70.7594L99.6444 31.7008C95.2616 26.3512 87.9139 24.5465 81.5975 27.2536L9.41004 58.1911C2.51355 61.2204 -1.28919 68.6969 0.386596 75.9801L15.8553 143.011C17.4667 149.972 23.6542 155 30.9374 155C196.002 155 330 21.2594 330 -144.063C330 -151.282 325.037 -157.534 318.012 -159.145Z" fill="#C4C4C4" fill-opacity="0.04"/>
</g>
<defs>
<clipPath id="clip0_68_10042">
<rect width="330" height="330" fill="white" transform="translate(0 -175)"/>
</clipPath>
</defs>
</svg>
