<svg width="38" height="38" viewBox="0 0 38 38" fill="none" xmlns="http://www.w3.org/2000/svg">
<circle cx="19" cy="19" r="18" stroke="#438C87" stroke-width="2"/>
<path d="M14.5469 10.85H14.5469C13.0632 10.85 11.85 12.0632 11.85 13.5469V25.008C11.85 26.4917 13.0632 27.7049 14.5469 27.7049H22.9942C24.4778 27.7049 25.691 26.4917 25.691 25.008L25.6912 16.1362C25.6912 15.9967 25.6371 15.8291 25.5199 15.7119L25.52 15.7118L25.5169 15.7089L20.5292 10.9971L20.523 10.9913L20.5162 10.9862C20.418 10.9125 20.3017 10.8501 20.1502 10.8501L14.5469 10.85ZM19.5757 15.0751C19.5755 15.943 20.2342 16.6423 21.0843 16.706L21.0852 16.7108H21.2112H24.5631L24.5633 25.008C24.5633 25.8591 23.8664 26.556 23.0153 26.556H14.5468C13.6957 26.556 12.9988 25.8591 12.9988 25.008L12.999 13.5469C12.999 12.6959 13.6959 11.9989 14.5469 11.9989H19.5757V15.075C19.5757 15.075 19.5757 15.0751 19.5757 15.0751ZM20.7244 15.0962L20.7246 12.7703L23.6995 15.583H21.2112C20.9332 15.583 20.7244 15.3742 20.7244 15.0962Z" fill="#438C87" stroke="#438C87" stroke-width="0.3"/>
<path d="M14.6318 20.8891H14.4818V21.0391V21.888V22.038H14.6318H22.8881H23.0381V21.888V21.0391V20.8891H22.8881H14.6318Z" fill="#438C87" stroke="#438C87" stroke-width="0.3"/>
<path d="M14.6318 18.3422H14.4818V18.4922V19.3411V19.4911H14.6318H19.7044H19.8544V19.3411V18.4922V18.3422H19.7044H14.6318Z" fill="#438C87" stroke="#438C87" stroke-width="0.3"/>
<path d="M14.6318 23.4359H14.4818V23.5859V24.4348V24.5848H14.6318H22.8881H23.0381V24.4348V23.5859V23.4359H22.8881H14.6318Z" fill="#438C87" stroke="#438C87" stroke-width="0.3"/>
</svg>
