<svg width="18" height="19" viewBox="0 0 18 19" fill="none" xmlns="http://www.w3.org/2000/svg">
<path d="M16.8818 5.40851L16.8818 5.40846L12.0119 0.950688C12.0119 0.950655 12.0118 0.950622 12.0118 0.950589C11.9402 0.884904 11.8458 0.85 11.75 0.85H1.22918C1.0296 0.85 0.85 1.00329 0.85 1.2138V17.8901C0.85 18.1006 1.0296 18.2539 1.22918 18.2539H16.62C16.8196 18.2539 16.9992 18.1006 16.9992 17.8901V5.67173C16.9992 5.57035 16.9553 5.4758 16.8818 5.40851ZM1.60836 1.5776H11.5981L16.2409 5.82755V17.5263H1.60836V1.5776Z" fill="#438C87" stroke="#438C87" stroke-width="0.3"/>
<path d="M5.58713 2.90029H3.21453C3.01495 2.90029 2.83535 3.05358 2.83535 3.26409V6.23469C2.83535 6.4452 3.01495 6.59849 3.21453 6.59849H5.58713C5.78671 6.59849 5.96631 6.4452 5.96631 6.23469V3.26409C5.96631 3.05358 5.78671 2.90029 5.58713 2.90029ZM5.20795 5.87089H3.59371V3.62789H5.20795V5.87089Z" fill="#438C87" stroke="#438C87" stroke-width="0.3"/>
<path d="M10.1108 2.90029H7.73797C7.53839 2.90029 7.35879 3.05358 7.35879 3.26409V6.23469C7.35879 6.4452 7.53839 6.59849 7.73797 6.59849H10.1108C10.3104 6.59849 10.49 6.4452 10.49 6.23469V3.26409C10.49 3.05358 10.3104 2.90029 10.1108 2.90029ZM9.73161 5.87089H8.11715V3.62789H9.73161V5.87089Z" fill="#438C87" stroke="#438C87" stroke-width="0.3"/>
<path d="M5.58713 7.70254H3.21453C3.01495 7.70254 2.83535 7.85583 2.83535 8.06634V11.037C2.83535 11.2475 3.01495 11.4008 3.21453 11.4008H5.58713C5.78672 11.4008 5.96631 11.2475 5.96631 11.037V8.06634C5.96631 7.85583 5.78672 7.70254 5.58713 7.70254ZM5.20795 10.6732H3.59371V8.43014H5.20795V10.6732Z" fill="#438C87" stroke="#438C87" stroke-width="0.3"/>
<path d="M10.1108 7.70254H7.73797C7.53839 7.70254 7.35879 7.85583 7.35879 8.06634V11.037C7.35879 11.2475 7.53839 11.4008 7.73797 11.4008H10.1108C10.3104 11.4008 10.49 11.2475 10.49 11.037V8.06634C10.49 7.85583 10.3104 7.70254 10.1108 7.70254ZM9.73161 10.6732H8.11715V8.43014H9.73161V10.6732Z" fill="#438C87" stroke="#438C87" stroke-width="0.3"/>
<path d="M14.6345 7.70254H12.2619C12.0623 7.70254 11.8827 7.85583 11.8827 8.06634V11.037C11.8827 11.2475 12.0623 11.4008 12.2619 11.4008H14.6345C14.8341 11.4008 15.0137 11.2475 15.0137 11.037V8.06634C15.0137 7.85583 14.8341 7.70254 14.6345 7.70254ZM14.2553 10.6732H12.6411V8.43014H14.2553V10.6732Z" fill="#438C87" stroke="#438C87" stroke-width="0.3"/>
<path d="M5.58713 12.5053H3.21453C3.01495 12.5053 2.83535 12.6586 2.83535 12.8691V15.8397C2.83535 16.0502 3.01495 16.2035 3.21453 16.2035H5.58713C5.78672 16.2035 5.96631 16.0502 5.96631 15.8397V12.8691C5.96631 12.6586 5.78672 12.5053 5.58713 12.5053ZM5.20795 15.4759H3.59371V13.2329H5.20795V15.4759Z" fill="#438C87" stroke="#438C87" stroke-width="0.3"/>
<path d="M10.1108 12.5053H7.73797C7.53839 12.5053 7.35879 12.6586 7.35879 12.8691V15.8397C7.35879 16.0502 7.53839 16.2035 7.73797 16.2035H10.1108C10.3104 16.2035 10.49 16.0502 10.49 15.8397V12.8691C10.49 12.6586 10.3104 12.5053 10.1108 12.5053ZM9.73161 15.4759H8.11715V13.2329H9.73161V15.4759Z" fill="#438C87" stroke="#438C87" stroke-width="0.3"/>
<path d="M14.6345 12.5053H12.2619C12.0623 12.5053 11.8827 12.6586 11.8827 12.8691V15.8397C11.8827 16.0502 12.0623 16.2035 12.2619 16.2035H14.6345C14.8341 16.2035 15.0137 16.0502 15.0137 15.8397V12.8691C15.0137 12.6586 14.8341 12.5053 14.6345 12.5053ZM14.2553 15.4759H12.6411V13.2329H14.2553V15.4759Z" fill="#438C87" stroke="#438C87" stroke-width="0.3"/>
</svg>
