<svg width="18" height="14" viewBox="0 0 18 14" fill="none" xmlns="http://www.w3.org/2000/svg">
<path d="M17.2988 0.75H10.8598C10.609 0.75 10.4085 0.950466 10.4085 1.20122V3.96951H6.03049C5.77973 3.96951 5.57927 4.16998 5.57927 4.42073V7.18902H1.20122C0.950465 7.18902 0.75 7.38949 0.75 7.64024V12.4695C0.75 12.7203 0.950466 12.9207 1.20122 12.9207H17.2988C17.5495 12.9207 17.75 12.7203 17.75 12.4695V1.20122C17.75 0.950465 17.5495 0.75 17.2988 0.75ZM16.8476 12.0183H1.65244V8.09146H5.57927V9.25C5.57927 9.50075 5.77973 9.70122 6.03049 9.70122C6.28124 9.70122 6.48171 9.50076 6.48171 9.25V4.87195H10.4085V6.03049C10.4085 6.28124 10.609 6.48171 10.8598 6.48171C11.1105 6.48171 11.311 6.28124 11.311 6.03049V1.65244H16.8476V12.0183Z" fill="#438C87" stroke="#438C87" stroke-width="0.5"/>
</svg>
