<svg width="12" height="17" viewBox="0 0 12 17" fill="none" xmlns="http://www.w3.org/2000/svg">
<path d="M3.12173 0.75H2.87173V1V8.74786H1.32619C1.00784 8.74786 0.75 9.0057 0.75 9.32404C0.75 9.64239 1.00784 9.90023 1.32619 9.90023H2.87173V15.2C2.87173 15.5183 3.12957 15.7761 3.44792 15.7761C3.76593 15.7761 4.0241 15.5184 4.0241 15.2V9.90001H7.34779V9.90004L7.35176 9.89998C7.39044 9.89937 8.46742 9.86274 9.54371 9.27739C10.0854 8.98279 10.6319 8.54641 11.0425 7.90181C11.4539 7.25589 11.7199 6.41453 11.7199 5.32501C11.7199 4.23548 11.4539 3.39413 11.0424 2.74821C10.6317 2.10361 10.085 1.66724 9.54284 1.37266C8.46559 0.787298 7.38681 0.750788 7.34534 0.750041L7.34534 0.75H7.34083H3.12173ZM9.008 8.27061C8.22025 8.70944 7.41198 8.74556 7.3373 8.74786H4.02388V1.90215H7.33057C7.40649 1.90418 8.21793 1.93652 9.00776 2.37457C9.40443 2.59458 9.79167 2.91469 10.0805 3.38236C10.3688 3.84913 10.5675 4.4765 10.5675 5.32501C10.5675 6.99763 9.78886 7.83562 9.008 8.27061Z" fill="#438C87" stroke="#438C87" stroke-width="0.5"/>
<path d="M1.32619 12.3487H10.6297C10.948 12.3487 11.2058 12.0908 11.2058 11.7725C11.2058 11.4541 10.948 11.1963 10.6297 11.1963H1.32619C1.00784 11.1963 0.75 11.4541 0.75 11.7725C0.75 12.0908 1.00784 12.3487 1.32619 12.3487Z" fill="#438C87" stroke="#438C87" stroke-width="0.5"/>
</svg>
