<svg width="16" height="16" viewBox="0 0 16 16" fill="none" xmlns="http://www.w3.org/2000/svg">
<path d="M3.91513 15.7964H12.0983C13.7745 15.7964 15.1634 14.5151 15.1634 12.9269V5.17635C15.1634 3.58815 13.7745 2.30687 12.0983 2.30687H11.7069V1.3885C11.7069 1.08234 11.4424 0.85 11.1405 0.85C10.8386 0.85 10.574 1.08234 10.574 1.3885V2.30687H5.4394V1.3885C5.4394 1.08234 5.17486 0.85 4.87295 0.85C4.57105 0.85 4.30651 1.08234 4.30651 1.3885V2.30687H3.91513C2.23895 2.30687 0.85 3.58815 0.85 5.17635V12.9075C0.85 14.5144 2.23823 15.7964 3.91513 15.7964ZM3.91513 3.38386H4.30651V4.69073C4.30651 4.99689 4.57105 5.22923 4.87295 5.22923C5.17486 5.22923 5.4394 4.99689 5.4394 4.69073V3.38386H10.5948V4.69073C10.5948 4.99689 10.8594 5.22923 11.1613 5.22923C11.4632 5.22923 11.7277 4.99689 11.7277 4.69073V3.38386H12.1191C13.1915 3.38386 14.0514 4.20047 14.0514 5.17635V6.59977H1.98289V5.17635C1.98289 4.20047 2.84276 3.38386 3.91513 3.38386ZM1.98289 7.67676H14.0305V12.9075C14.0305 13.8833 13.1707 14.6999 12.0983 14.6999H3.91513C2.84276 14.6999 1.98289 13.8833 1.98289 12.9075V7.67676Z" fill="#438C87" stroke="#438C87" stroke-width="0.3"/>
</svg>
