<svg width="18" height="18" viewBox="0 0 18 18" fill="none" xmlns="http://www.w3.org/2000/svg">
<path d="M12.906 8.99982L12.906 9C12.906 10.0359 12.4945 11.0294 11.7619 11.7619C11.7619 11.7619 11.7619 11.7619 11.7619 11.7619M12.906 8.99982L6.30885 11.6912C7.02254 12.405 7.99063 12.8059 9.00004 12.8059C10.0094 12.8059 10.9775 12.405 11.6912 11.6912L11.7619 11.7619M12.906 8.99982C12.9041 7.96454 12.492 6.97217 11.76 6.24008C11.0279 5.508 10.0355 5.09595 9.00022 5.09408H9.00004C7.96412 5.09408 6.97059 5.50549 6.23814 6.23809M12.906 8.99982L6.23814 6.23809M11.7619 11.7619C11.0295 12.4945 10.036 12.9059 9.00004 12.9059C7.96412 12.9059 6.97059 12.4945 6.23815 11.7619M11.7619 11.7619L6.23815 11.7619M6.23815 11.7619C5.50554 11.0295 5.09412 10.0359 5.09412 9C5.09412 7.96408 5.50557 6.97055 6.23813 6.23811C6.23813 6.2381 6.23814 6.2381 6.23814 6.23809M6.23815 11.7619L12.806 9C12.8041 7.99117 12.4026 7.02417 11.6892 6.31079C10.9759 5.59742 10.0089 5.1959 9.00004 5.19408C7.99063 5.19408 7.02254 5.59497 6.30885 6.30881L6.23814 6.23809M14.504 4.24156C14.4921 4.1807 14.4744 4.12105 14.451 4.06361L14.4506 4.06252C14.4268 4.00579 14.3976 3.95104 14.3631 3.89934L14.3632 3.89932L14.3615 3.89703C14.3267 3.84787 14.2886 3.80126 14.2476 3.75733L14.2478 3.75717L14.2428 3.75255C14.1987 3.71124 14.1518 3.67304 14.1024 3.63827L14.1024 3.63825L14.1005 3.63699C14.0491 3.60253 13.9944 3.57314 13.9373 3.54934L13.9373 3.54932L13.9353 3.54854C13.8781 3.52614 13.8192 3.50855 13.759 3.49614L13.759 3.49612L13.7569 3.49573C13.6344 3.47316 13.5091 3.47316 13.3866 3.49573L13.3856 3.49593C13.3247 3.50781 13.2649 3.52562 13.2075 3.54903L13.2068 3.5493C13.1495 3.57308 13.0947 3.60248 13.0431 3.63698L13.0427 3.63728C12.9917 3.67187 12.9438 3.71084 12.8996 3.75388L12.8995 3.7538L12.8963 3.75719C12.8552 3.80114 12.8171 3.84797 12.7823 3.89703L12.7822 3.897L12.7806 3.89952C12.7464 3.95098 12.717 4.00571 12.6933 4.06275L12.6929 4.0637C12.6696 4.12121 12.6517 4.1807 12.6395 4.24164L12.7376 4.26125L12.6395 4.24151C12.6147 4.36466 12.6147 4.49141 12.6395 4.61445M14.504 4.24156C14.5294 4.36451 14.5294 4.49135 14.504 4.61431C14.4806 4.73688 14.4326 4.8535 14.3629 4.95707L14.3616 4.95908L14.3615 4.95906C14.3268 5.00811 14.2887 5.05489 14.2476 5.09891L14.2429 5.104L14.2427 5.10382C14.1987 5.14489 14.1519 5.183 14.1026 5.21784L14.1005 5.21928L14.1005 5.21925C14.0489 5.25379 13.9942 5.28301 13.9373 5.30674L13.9355 5.30747L13.9355 5.30745C13.8782 5.33008 13.8192 5.34768 13.759 5.3601L13.7589 5.36011C13.6356 5.38546 13.5083 5.38549 13.385 5.36019C13.3243 5.34817 13.2648 5.33042 13.2075 5.30706L13.2068 5.30679C13.1497 5.28306 13.0948 5.25385 13.0431 5.21925L13.0427 5.21895C12.9917 5.18437 12.9438 5.14539 12.8996 5.10236L12.8961 5.09899L12.8962 5.09891C12.8552 5.05498 12.8171 5.00832 12.7822 4.95893L12.7806 4.95671L12.7806 4.95669C12.7464 4.90529 12.717 4.85048 12.6932 4.79323L12.6929 4.79248C12.6696 4.735 12.6517 4.67532 12.6395 4.61445M14.504 4.24156C14.504 4.24176 14.5041 4.24196 14.5041 4.24216L14.4059 4.26125L14.5039 4.24096C14.5039 4.24116 14.5039 4.24136 14.504 4.24156ZM12.6395 4.61445L12.7376 4.59484L12.6395 4.6146C12.6395 4.61455 12.6395 4.6145 12.6395 4.61445ZM17.1 5.59574V5.59563C17.0986 4.35077 16.6034 3.15716 15.7231 2.27687C14.8429 1.39657 13.6492 0.901398 12.4044 0.9H12.4043L5.59574 0.9L5.59563 0.9C4.35077 0.901391 3.15716 1.39661 2.27687 2.27687C1.39657 3.15712 0.901398 4.35078 0.9 5.59563V5.59574L0.9 12.4043L0.9 12.4044C0.901391 13.6492 1.39661 14.8428 2.27687 15.7231C3.15712 16.6034 4.35078 17.0986 5.59563 17.1H5.59574H12.4043H12.4044C13.6492 17.0986 14.8428 16.6034 15.7231 15.7231C16.6034 14.8429 17.0986 13.6492 17.1 12.4044V12.4043V5.59574ZM14.8598 3.14014L14.8599 3.14015C15.5113 3.7915 15.8777 4.67463 15.8787 5.59586V12.4041C15.8777 13.3254 15.5114 14.2085 14.8599 14.8598L14.8598 14.8599C14.2085 15.5113 13.3254 15.8777 12.4041 15.8787H5.59586C4.67459 15.8777 3.7915 15.5114 3.14016 14.8599L3.14014 14.8598C2.4887 14.2085 2.12234 13.3254 2.12128 12.4043C2.12128 12.4042 2.12128 12.4042 2.12128 12.4041V5.59586C2.12128 5.59582 2.12128 5.59578 2.12128 5.59574C2.12233 4.67452 2.48867 3.79147 3.14014 3.14016L3.14015 3.14014C3.79147 2.4887 4.67456 2.12234 5.59574 2.12128C5.59578 2.12128 5.59582 2.12128 5.59586 2.12128H12.4041C12.4042 2.12128 12.4042 2.12128 12.4043 2.12128C13.3255 2.12233 14.2085 2.48867 14.8598 3.14014Z" fill="#438C87" stroke="#438C87" stroke-width="0.2"/>
</svg>
