<svg width="18" height="18" viewBox="0 0 18 18" fill="none" xmlns="http://www.w3.org/2000/svg">
<path d="M14.385 0.950459V0.95H14.335H3.66693C2.94634 0.95 2.25531 1.23618 1.74577 1.74567C1.23622 2.25515 0.95 2.9461 0.95 3.66661V14.3334C0.95 15.0539 1.23622 15.7448 1.74577 16.2543C2.25531 16.7638 2.94634 17.05 3.66693 17.05H14.335C15.0556 17.05 15.7466 16.7638 16.2562 16.2543C16.7657 15.7448 17.052 15.0539 17.052 14.3334V3.66661C17.052 2.9461 16.7657 2.25515 16.2562 1.74567C15.7584 1.24797 15.0875 0.963371 14.385 0.950459ZM15.6184 14.2833V14.3333C15.6184 14.6736 15.4833 15.0001 15.2425 15.2407L15.2425 15.2407C15.0019 15.4814 14.6754 15.6166 14.335 15.6166H3.66694C3.32658 15.6166 3.00009 15.4814 2.75945 15.2407L2.75943 15.2407C2.51868 15.0001 2.38353 14.6736 2.38353 14.3333V3.66655C2.38353 3.32624 2.51868 2.99979 2.75943 2.75918L2.75945 2.75917C3.00009 2.51845 3.32658 2.3833 3.66694 2.3833H14.335C14.6754 2.3833 15.0019 2.51845 15.2425 2.75917L15.2425 2.75918C15.4833 2.99979 15.6184 3.32624 15.6184 3.66655L15.6185 14.2833H15.6184Z" fill="#438C87" stroke="#438C87" stroke-width="0.1"/>
<path d="M6.1373 6.13618L6.1373 6.13618C5.37772 6.89578 4.95098 7.9259 4.95098 8.99999C4.95098 10.0741 5.37772 11.1042 6.1373 11.8638L6.1373 11.8638C6.89699 12.6233 7.92722 13.05 9.00143 13.05C10.0756 13.05 11.1059 12.6233 11.8656 11.8638L11.8656 11.8638C12.6251 11.1042 13.0519 10.0741 13.0519 8.99999C13.0519 7.9259 12.6251 6.89578 11.8656 6.13618L11.8656 6.13618C11.1059 5.37669 10.0756 4.95 9.00143 4.95C7.92722 4.95 6.89699 5.37669 6.1373 6.13618ZM9.00143 11.6165C8.30735 11.6165 7.64177 11.3409 7.15097 10.8502C6.66018 10.3594 6.3845 9.69392 6.3845 8.99993C6.3845 8.30594 6.66018 7.64043 7.15097 7.14969C7.64177 6.65896 8.30735 6.38331 9.00143 6.38331C9.69551 6.38331 10.3611 6.65896 10.8519 7.14969C11.3427 7.64043 11.6184 8.30594 11.6184 8.99993C11.6184 9.69392 11.3427 10.3594 10.8519 10.8502C10.3611 11.3409 9.69551 11.6165 9.00143 11.6165Z" fill="#438C87" stroke="#438C87" stroke-width="0.1"/>
<path d="M13.3351 5.71654C13.915 5.71654 14.3852 5.2465 14.3852 4.66652C14.3852 4.08666 13.915 3.6165 13.3351 3.6165C12.7551 3.6165 12.285 4.08667 12.285 4.66652C12.285 5.24649 12.7551 5.71654 13.3351 5.71654Z" fill="#438C87" stroke="#438C87" stroke-width="0.1"/>
</svg>
