<svg width="18" height="13" viewBox="0 0 18 13" fill="none" xmlns="http://www.w3.org/2000/svg">
<path d="M3.05831 2.01004H15.3543L9.20607 5.56771L3.05831 2.01004ZM15.7195 11.3179L15.7195 11.318H2.69243C2.52691 11.318 2.39206 11.1831 2.39206 11.0176V3.08074L8.8904 6.84105L8.8904 6.84105C8.98817 6.89762 9.09728 6.92573 9.20608 6.92573C9.31488 6.92573 9.42399 6.89762 9.52176 6.84105L9.39655 6.62467L9.52176 6.84105L16.0201 3.08074V11.0175C16.02 11.1829 15.8848 11.3179 15.7195 11.3179ZM15.7197 0.75H2.69243C1.83177 0.75 1.13184 1.44997 1.13184 2.3106V11.0175C1.13184 11.8782 1.83181 12.5781 2.69243 12.5781H15.7197C16.5804 12.5781 17.2803 11.8781 17.2803 11.0175V2.3106C17.2803 1.44994 16.5803 0.75 15.7197 0.75Z" fill="#438C87" stroke="#438C87" stroke-width="0.5"/>
</svg>
