<svg width="19" height="18" viewBox="0 0 19 18" fill="none" xmlns="http://www.w3.org/2000/svg">
<path d="M12.5947 10.3657L12.5947 10.3657L12.5933 10.367L12.502 10.4522C12.1467 10.7561 11.7915 11.0861 11.463 11.4175L11.434 11.404L11.3444 11.3622C11.2741 11.3232 11.1981 11.2896 11.1287 11.259C11.1174 11.2541 11.1064 11.2492 11.0955 11.2444C11.0136 11.2079 10.9446 11.1753 10.8916 11.1382L10.8918 11.138L10.8855 11.1343C9.78071 10.4758 8.76655 9.61621 7.78141 8.49617L7.7809 8.49559C7.34135 8.00354 7.01725 7.54142 6.80501 7.08404L7.68162 6.26628L7.92938 6.03515C8.34806 5.64457 8.56508 5.18607 8.56508 4.71971C8.56508 4.25336 8.34806 3.79486 7.92938 3.40428L7.57323 3.07204L7.21707 2.73979L6.90737 2.45088L6.56671 2.13308L5.8544 1.46858C5.041 0.709787 3.92941 0.711597 3.08697 1.46727L3.08696 1.46725L3.08553 1.46858L2.82228 1.71416L2.55904 1.95973C2.47449 2.0386 2.3915 2.11923 2.30821 2.20014C2.14138 2.3622 1.97334 2.52543 1.78917 2.67815L1.78915 2.67813L1.78717 2.67986C1.27097 3.13131 0.981389 3.73343 0.917249 4.42152L0.917214 4.42191C0.822143 5.48618 1.13927 6.42879 1.41946 7.12585C2.04412 8.69914 3.01129 10.1822 4.34867 11.691L4.34934 11.6917C6.031 13.551 8.02428 15.0037 10.3284 16.0494C11.6064 16.6309 12.7026 16.924 13.7709 16.9827L13.7709 16.9828H13.7764H13.777H13.7775H13.7781H13.7786H13.7791H13.7797H13.7802H13.7808H13.7813H13.7818H13.7824H13.7829H13.7834H13.784H13.7845H13.785H13.7856H13.7861H13.7866H13.7872H13.7877H13.7882H13.7888H13.7893H13.7898H13.7903H13.7909H13.7914H13.7919H13.7924H13.793H13.7935H13.794H13.7945H13.7951H13.7956H13.7961H13.7966H13.7971H13.7977H13.7982H13.7987H13.7992H13.7997H13.8002H13.8008H13.8013H13.8018H13.8023H13.8028H13.8033H13.8038H13.8043H13.8049H13.8054H13.8059H13.8064H13.8069H13.8074H13.8079H13.8084H13.8089H13.8094H13.8099H13.8104H13.8109H13.8114H13.8119H13.8125H13.813H13.8135H13.814H13.8145H13.815H13.8155H13.816H13.8165H13.8169H13.8174H13.8179H13.8184H13.8189H13.8194H13.8199H13.8204H13.8209H13.8214H13.8219H13.8224H13.8229H13.8234H13.8239H13.8244H13.8248H13.8253H13.8258H13.8263H13.8268H13.8273H13.8278H13.8283H13.8288H13.8292H13.8297H13.8302H13.8307H13.8312H13.8317H13.8321H13.8326H13.8331H13.8336H13.8341H13.8346H13.835H13.8355H13.836H13.8365H13.837H13.8374H13.8379H13.8384H13.8389H13.8394H13.8398H13.8403H13.8408H13.8413H13.8417H13.8422H13.8427H13.8432H13.8436H13.8441H13.8446H13.8451H13.8455H13.846H13.8465H13.847H13.8474H13.8479H13.8484H13.8488H13.8493H13.8498H13.8503H13.8507H13.8512H13.8517H13.8521H13.8526H13.8531H13.8535H13.854H13.8545H13.8549H13.8554H13.8559H13.8563H13.8568H13.8573H13.8577H13.8582H13.8587H13.8591H13.8596H13.8601H13.8605H13.861H13.8615H13.8619H13.8624H13.8628H13.8633H13.8638H13.8642H13.8647H13.8652H13.8656H13.8661H13.8665H13.867H13.8675H13.8679H13.8684H13.8688H13.8693H13.8698H13.8702H13.8707H13.8711H13.8716H13.8721H13.8725H13.873H13.8734H13.8739H13.8744H13.8748H13.8753H13.8757H13.8762H13.8766H13.8771H13.8776H13.878H13.8785H13.8789H13.8794H13.8798H13.8803H13.8808H13.8812H13.8817H13.8821H13.8826H13.883H13.8835H13.884H13.8844H13.8849H13.8853H13.8858H13.8862H13.8867H13.8871H13.8876H13.888H13.8885H13.889H13.8894H13.8899H13.8903H13.8908H13.8912H13.8917H13.8921H13.8926H13.893H13.8935H13.894H13.8944H13.8949H13.8953H13.8958H13.8962H13.8967H13.8971H13.8976H13.898H13.8985H13.8989H13.8994H13.8998H13.9003H13.9008H13.9012H13.9017H13.9021H13.9026H13.903H13.9035H13.9039H13.9044H13.9048H13.9053H13.9057H13.9062H13.9067H13.9071H13.9076H13.908H13.9085H13.9089H13.9094H13.9098H13.9103H13.9107H13.9112H13.9117H13.9121H13.9126H13.913H13.9135H13.9139H13.9144H13.9148H13.9153H13.9157H13.9162H13.9167H13.9171H13.9176H13.918H13.9185H13.9189H13.9194H13.9198H13.9203H13.9208H13.9212H13.9217H13.9221H13.9226H13.923H13.9235H13.924H13.9244H13.9249H13.9253H13.9258H13.9262H13.9267H13.9272H13.9276H13.9281H13.9285H13.929H13.9295H13.9299H13.9304H13.9308H13.9313H13.9318H13.9322H13.9327H13.9331H13.9336H13.9341H13.9345H13.935H13.9354H13.9359H13.9364H13.9368H13.9373H13.9378H13.9382H13.9387H13.9391H13.9396H13.9401H13.9405H13.941H13.9415H13.9419H13.9424H13.9429H13.9433H13.9438H13.9443H13.9447H13.9452H13.9457H13.9461H13.9466H13.9471H13.9475H13.948H13.9485H13.9489H13.9494H13.9499H13.9504H13.9508H13.9513H13.9518H13.9522H13.9527H13.9532H13.9536H13.9541H13.9546H13.9551H13.9555H13.956H13.9565H13.957H13.9574H13.9579H13.9584H13.9589H13.9593H13.9598H13.9603H13.9608H13.9612H13.9617H13.9622H13.9627H13.9632H13.9636H13.9641H13.9646H13.9651H13.9656H13.966H13.9665H13.967H13.9675H13.968H13.9685H13.9689H13.9694H13.9699H13.9704H13.9709H13.9714H13.9719H13.9723H13.9728H13.9733H13.9738H13.9743H13.9748H13.9753H13.9758H13.9762H13.9767H13.9772H13.9777H13.9782H13.9787H13.9792H13.9797H13.9802H13.9807H13.9812H13.9817H13.9822H13.9827H13.9832H13.9837H13.9842H13.9847H13.9852H13.9857H13.9862H13.9867H13.9872H13.9877H13.9882H13.9887H13.9892H13.9897H13.9902H13.9907H13.9912H13.9917H13.9922H13.9927H13.9932H13.9937H13.9942H13.9947H13.9952H13.9957H13.9963H13.9968H13.9973H13.9978H13.9983H13.9988H13.9993H13.9998H14.0004H14.0009H14.0014H14.0019H14.0024H14.0029H14.0035H14.004H14.0045H14.005H14.0055H14.0061H14.0066H14.0071H14.0076H14.0082H14.0087H14.0092H14.0097H14.0103H14.0108H14.0113H14.0118H14.0124H14.0129H14.0134H14.014H14.0145H14.015H14.0156H14.0161H14.0166H14.0172H14.0177H14.0182H14.0188H14.0193H14.0199H14.0204H14.0209H14.0215H14.022H14.0226H14.0231H14.0236H14.0242C14.9768 16.9828 15.7171 16.6852 16.296 16.0555C16.4174 15.9282 16.539 15.8148 16.6629 15.6992L16.6638 15.6983C16.7865 15.5839 16.9115 15.4673 17.0367 15.336L17.4358 14.9637C17.436 14.9635 17.4362 14.9633 17.4365 14.9631C17.8709 14.5726 18.0958 14.107 18.0999 13.6371C18.1041 13.167 17.8872 12.7078 17.4674 12.3309C17.4672 12.3307 17.4669 12.3305 17.4667 12.3303L15.3622 10.367C14.5488 9.60821 13.4372 9.61002 12.5947 10.3657ZM2.16938 4.55565L2.1695 4.554C2.19841 4.17641 2.34076 3.8822 2.63143 3.61027C2.77219 3.4934 2.90487 3.36963 3.03511 3.24813L3.03614 3.24717C3.1681 3.12406 3.29761 3.00328 3.43436 2.88989L3.43447 2.89002L3.43874 2.88603L3.96523 2.39489C4.13943 2.23238 4.30205 2.16174 4.45448 2.16174C4.6069 2.16174 4.76952 2.23238 4.94372 2.39489L5.65603 3.05938L5.9967 3.37718L6.3064 3.66609L6.66255 3.99834L7.01871 4.33058C7.2125 4.51137 7.28888 4.65995 7.28888 4.79194C7.28888 4.92394 7.2125 5.07252 7.01871 5.2533L6.77095 5.48443C6.43007 5.80242 6.09094 6.11878 5.72119 6.43496L5.72113 6.43488L5.71797 6.43783C5.6178 6.53128 5.5122 6.66069 5.45871 6.82703C5.40429 6.99626 5.40657 7.1954 5.50949 7.41943C5.79296 8.03646 6.20116 8.65069 6.76255 9.31987L6.76254 9.31988L6.76363 9.32114C7.82231 10.5411 8.94508 11.5018 10.1943 12.2304C10.3848 12.3487 10.5748 12.4373 10.7588 12.5232L10.761 12.5242C10.8067 12.5455 10.8496 12.5636 10.8877 12.5796C10.9026 12.5859 10.9169 12.5919 10.9302 12.5977C10.979 12.6187 11.0201 12.638 11.0602 12.663L11.06 12.6633L11.0677 12.6672C11.4483 12.8609 11.8627 12.7928 12.1993 12.5102L12.1994 12.5103L12.2032 12.5067L12.8071 11.9434L13.4111 11.38L13.3428 11.3069L13.4111 11.38L13.5023 11.2948C13.6755 11.1472 13.8386 11.0818 13.9893 11.0818C14.1397 11.0818 14.2945 11.1469 14.4515 11.2933L14.4519 11.2937C15.133 11.929 15.8459 12.5942 16.5591 13.2305L16.5589 13.2307L16.5643 13.2348C16.7338 13.3666 16.8044 13.5062 16.8044 13.6398C16.8044 13.7757 16.7314 13.9316 16.5574 14.0939L16.157 14.4675C15.8769 14.6999 15.5955 14.9623 15.3444 15.2547C14.9657 15.6339 14.5308 15.7994 13.8436 15.7718C12.961 15.7148 12.0131 15.4591 10.8749 14.9713C8.75022 13.9945 6.87265 12.6447 5.30295 10.922C4.07076 9.5426 3.17971 8.16585 2.59642 6.73433C2.25783 5.84397 2.10958 5.19699 2.16938 4.55565Z" fill="#438C87" stroke="#438C87" stroke-width="0.2"/>
</svg>
