<svg width="329" height="345" viewBox="0 0 329 345" fill="none" xmlns="http://www.w3.org/2000/svg">
<path fill-rule="evenodd" clip-rule="evenodd" d="M0 0H289C311.091 0 329 17.9086 329 40V345H102V246.534L169.664 310.871L190.336 289.129L98.8359 202.129L88.8227 192.609L78.5132 201.808L0 271.866V232.086L0.986814 233.192L88.1773 155.391L169.664 232.871L190.336 211.129L98.8359 124.129L88.8227 114.609L78.5132 123.808L0 193.866V158.086L0.986814 159.192L88.1773 81.3913L169.664 158.871L190.336 137.129L98.8359 50.1295L88.8227 40.6087L78.5132 49.8079L0 119.866V0ZM74 246.042L0.986814 311.192L0 310.086V345H74V246.042Z" fill="#C4C4C4" fill-opacity="0.04"/>
</svg>
