<svg width="38" height="38" viewBox="0 0 38 38" fill="none" xmlns="http://www.w3.org/2000/svg">
<circle cx="19" cy="19" r="18" fill="#A782C3" stroke="#A782C4" stroke-width="2"/>
<path fill-rule="evenodd" clip-rule="evenodd" d="M19.5744 12.2387C23.2872 12.8095 24.9995 14.5751 25.4723 18.3147C25.5162 18.6601 25.3875 19.1798 25.8803 19.1894C26.3954 19.1993 26.2712 18.6871 26.2755 18.3414C26.3192 14.8193 23.2483 11.5543 19.6818 11.4339C19.4127 11.4726 18.8559 11.2483 18.8211 11.8515C18.7981 12.258 19.2669 12.1913 19.5744 12.2387Z" fill="#15615C"/>
<path fill-rule="evenodd" clip-rule="evenodd" d="M25.3045 22.375C24.0584 21.4959 22.4915 19.8137 21.2706 21.6875C20.863 22.3044 20.2926 22.3313 19.6962 22.0607C18.0518 21.3151 16.7822 20.1665 16.0384 18.4951C15.1613 16.4191 17.3086 16.8091 17.2688 15.3617C17.2261 14.5739 15.313 11.9406 14.5574 11.6627C14.2448 11.5476 13.9334 11.5551 13.6154 11.662C11.8438 12.2577 11.1101 13.7147 11.8128 15.4398C13.9093 20.5867 17.5986 24.1697 22.6773 26.3566C22.9669 26.4811 23.2885 26.5308 23.4514 26.5756C24.6077 26.5873 25.9621 25.4732 26.3533 24.3676C26.7299 23.3039 25.9341 22.8819 25.3045 22.375Z" fill="#15615C"/>
<path fill-rule="evenodd" clip-rule="evenodd" d="M20.3044 13.2611C19.9473 13.218 19.4758 13.0497 19.3924 13.5454C19.3052 14.0656 19.8307 14.0128 20.1684 14.0883C22.4616 14.6008 23.26 15.4355 23.6376 17.71C23.6928 18.0417 23.5832 18.5579 24.1467 18.4723C24.5643 18.4086 24.4136 17.9662 24.4484 17.7078C24.467 15.524 22.5956 13.5363 20.3044 13.2611Z" fill="#15615C"/>
<path fill-rule="evenodd" clip-rule="evenodd" d="M20.5214 15.038C20.283 15.0439 20.0491 15.0697 19.9614 15.3244C19.8299 15.7052 20.1067 15.7959 20.3885 15.8412C21.3291 15.9922 21.8242 16.5469 21.9182 17.485C21.9437 17.7396 22.1053 17.946 22.3512 17.9169C22.692 17.8762 22.7229 17.5729 22.7123 17.2847C22.7291 16.2308 21.5379 15.0127 20.5214 15.038Z" fill="#15615C"/>
</svg>
