<svg width="38" height="38" viewBox="0 0 38 38" fill="none" xmlns="http://www.w3.org/2000/svg">
<circle cx="19" cy="19" r="18" fill="#6FA15E" stroke="#6FA25E" stroke-width="2"/>
<g clip-path="url(#clip0_274_222)">
<path d="M23.3193 20.3431C23.2842 20.3262 21.972 19.6801 21.7388 19.5961C21.6436 19.5619 21.5416 19.5286 21.4331 19.5286C21.2559 19.5286 21.1071 19.6169 20.9911 19.7903C20.86 19.9852 20.4632 20.449 20.3406 20.5876C20.3246 20.6059 20.3027 20.6277 20.2897 20.6277C20.2779 20.6277 20.0748 20.5441 20.0133 20.5174C18.6057 19.9059 17.5372 18.4355 17.3907 18.1875C17.3697 18.1519 17.3689 18.1357 17.3687 18.1357C17.3738 18.1168 17.4212 18.0694 17.4456 18.0449C17.5171 17.9741 17.5945 17.8809 17.6694 17.7908C17.7049 17.748 17.7404 17.7053 17.7753 17.6649C17.884 17.5385 17.9324 17.4403 17.9885 17.3266L18.0179 17.2675C18.1549 16.9953 18.0379 16.7656 18.0001 16.6915C17.9691 16.6294 17.415 15.2921 17.3561 15.1517C17.2144 14.8126 17.0272 14.6548 16.7671 14.6548C16.743 14.6548 16.7671 14.6548 16.6659 14.6591C16.5426 14.6643 15.8714 14.7526 15.5746 14.9397C15.2599 15.1381 14.7275 15.7706 14.7275 16.8828C14.7275 17.8839 15.3628 18.829 15.6355 19.1885C15.6423 19.1976 15.6548 19.216 15.6728 19.2424C16.7174 20.7678 18.0195 21.8983 19.3395 22.4256C20.6103 22.9333 21.2121 22.9919 21.5542 22.9919C21.5543 22.9919 21.5543 22.9919 21.5543 22.9919C21.698 22.9919 21.8131 22.9807 21.9146 22.9707L21.979 22.9645C22.418 22.9256 23.3828 22.4257 23.6022 21.8159C23.7751 21.3355 23.8207 20.8107 23.7057 20.6203C23.6269 20.4908 23.4911 20.4256 23.3193 20.3431Z" fill="#15615C"/>
<path d="M19.1598 10C14.2848 10 10.3187 13.9363 10.3187 18.7746C10.3187 20.3395 10.7375 21.8713 11.5309 23.2119L10.0124 27.6912C9.98409 27.7747 10.0051 27.867 10.0669 27.9299C10.1115 27.9755 10.172 28 10.2338 28C10.2574 28 10.2813 27.9964 10.3045 27.989L14.9752 26.5048C16.2533 27.1877 17.6979 27.5482 19.1598 27.5482C24.0343 27.5482 28 23.6124 28 18.7746C28 13.9363 24.0343 10 19.1598 10ZM19.1598 25.7204C17.7841 25.7204 16.4517 25.3232 15.3064 24.5716C15.2679 24.5463 15.2231 24.5334 15.1781 24.5334C15.1544 24.5334 15.1305 24.537 15.1073 24.5443L12.7676 25.2881L13.5229 23.0598C13.5473 22.9876 13.5351 22.9081 13.4901 22.8466C12.6179 21.6549 12.1569 20.2469 12.1569 18.7746C12.1569 14.9442 15.2984 11.8278 19.1597 11.8278C23.0206 11.8278 26.1617 14.9442 26.1617 18.7746C26.1618 22.6046 23.0207 25.7204 19.1598 25.7204Z" fill="#15615C"/>
</g>
<defs>
<clipPath id="clip0_274_222">
<rect width="18" height="18" fill="white" transform="translate(10 10)"/>
</clipPath>
</defs>
</svg>
